<svg xmlns="http://www.w3.org/2000/svg" width="512" height="512" viewBox="0 0 24 24"><path fill="#1976d2" d="M15.3 21H3.7A2.8 2.8 0 011 18.2V2.8C1 1.1 2.2 0 3.8 0h11.4C16.9 0 18 1.2 18 2.8v15.4c0 1.6-1.2 2.8-2.8 2.8z"/><path fill="#1667b7" d="M10 0H3.7A2.8 2.8 0 001 2.8v15.4C1 19.9 2.2 21 3.8 21H10z"/><path fill="#eceff1" d="M20.3 24H8.7A2.8 2.8 0 016 21.2V6.8C6 5.2 7.2 4 8.8 4h11.4C21.9 4 23 5.2 23 6.8v14.4c0 1.6-1.2 2.8-2.8 2.8z"/><g fill="#607d8b"><path d="M18.3 17h-7.6a.8.8 0 010-1.5h7.6a.8.8 0 010 1.5zM18.3 21h-7.6a.8.8 0 010-1.5h7.6a.8.8 0 010 1.5zM18.3 13.5h-7.6a.8.8 0 010-1.5h7.6a.8.8 0 010 1.5zM18.3 9.5h-7.6a.8.8 0 010-1.5h7.6a.8.8 0 010 1.5z"/></g><path fill="#cdd0d2" d="M14.5 4H8.7A2.8 2.8 0 006 6.8v14.4C6 22.9 7.2 24 8.8 24h5.7v-3h-3.8a.8.8 0 010-1.5h3.8V17h-3.8a.8.8 0 010-1.5h3.8v-2h-3.8a.8.8 0 010-1.5h3.8V9.5h-3.8a.8.8 0 010-1.5h3.8z"/><path fill="#546d79" d="M14.5 15.5h-3.8a.8.8 0 000 1.5h3.8zM14.5 19.5h-3.8a.8.8 0 000 1.5h3.8zM14.5 12h-3.8a.8.8 0 000 1.5h3.8zM14.5 8h-3.8a.8.8 0 000 1.5h3.8z"/></svg>