<svg xmlns="http://www.w3.org/2000/svg" xmlns:xlink="http://www.w3.org/1999/xlink" width="512" height="512" viewBox="0 0 510 510"><linearGradient id="a"><stop offset="0" stop-color="#99e6fc"/><stop offset=".4" stop-color="#01d0fb"/><stop offset=".5" stop-color="#08c6f7"/><stop offset=".7" stop-color="#1da9eb"/><stop offset=".9" stop-color="#3f7cd9"/><stop offset="1" stop-color="#4f66d0"/></linearGradient><linearGradient id="b" x1="-16.4" x2="323.8" y1="358.7" y2="358.7" gradientUnits="userSpaceOnUse" xlink:href="#a"/><linearGradient id="c" x1="-87.8" x2="280.2" y1="358.7" y2="358.7" gradientUnits="userSpaceOnUse" xlink:href="#a"/><linearGradient id="d" x1="-90.5" x2="214.4" y1="356.4" y2="356.4" gradientUnits="userSpaceOnUse" xlink:href="#a"/><linearGradient id="e" x1="181.6" x2="533.2" y1="151.3" y2="151.3" gradientUnits="userSpaceOnUse" xlink:href="#a"/><linearGradient id="f" x1="210.3" x2="380.4" y1="263.5" y2="263.5" gradientUnits="userSpaceOnUse" xlink:href="#a"/><linearGradient id="g" x1="119.5" x2="487.5" y1="151.3" y2="151.3" gradientUnits="userSpaceOnUse" xlink:href="#a"/><linearGradient id="h" x1="116.9" x2="421.8" y1="149.1" y2="149.1" gradientUnits="userSpaceOnUse" xlink:href="#a"/><linearGradient id="i" x1="172.6" x2="347.3" y1="255" y2="255" gradientUnits="userSpaceOnUse"><stop offset="0" stop-color="#fe93bb"/><stop offset=".6" stop-color="#925cb4"/><stop offset="1" stop-color="#5b3374"/></linearGradient><path fill="url(#b)" d="M128 510c-23 0-47-9-65-27l-36-36a92 92 0 010-130l82-83c36-36 95-36 130 0l37 37a91 91 0 010 129l-83 83a92 92 0 01-65 27zm-25-67c14 14 36 14 50 0l83-83a35 35 0 000-49l-37-37a35 35 0 00-49 0l-83 83a35 35 0 000 50z"/><path fill="url(#c)" d="M275 270l-36-36a92 92 0 00-85-24c17 3 32 11 45 24l36 37c7 7 13 15 18 23l-17 17c6 7 10 15 10 25l5-5c4-4 11-1 11 4v1c0 24-9 47-27 64l-82 83a91 91 0 01-45 25 92 92 0 0085-25l83-83a91 91 0 00-1-130z"/><path fill="url(#d)" d="M67 357a35 35 0 000 50l36 36c1 1-11 6-23 6-6 0-13-2-17-6l-21-21a57 57 0 010-80l67-68a35 35 0 0145-4l-4 4z"/><path fill="url(#e)" d="M336 303c-24 0-47-9-65-27l-37-37a92 92 0 010-129l83-83c36-36 94-36 130 0l36 36a91 91 0 010 130l-83 83a92 92 0 01-64 27zm46-246c-9 0-18 3-25 10l-83 83a35 35 0 000 49l37 37c13 13 36 13 49 0l83-83a35 35 0 000-50l-36-36c-7-7-16-10-25-10z"/><path fill="url(#f)" d="M336 246c-9 0-18-3-25-10l-40 40c6 6 13 11 20 15z"/><path fill="url(#g)" d="M483 63l-36-36a92 92 0 00-85-25c16 4 32 12 44 25l37 36a91 91 0 010 130l-83 83a91 91 0 01-45 24 92 92 0 0085-24l83-83a91 91 0 000-130z"/><path fill="url(#h)" d="M274 150a35 35 0 000 49l37 37c1 1-11 5-23 5-7 0-13-1-18-5l-21-22a57 57 0 010-80l67-67a35 35 0 0146-4l-5 4z"/><path fill="url(#i)" d="M204 334a28 28 0 01-20-48l102-102a28 28 0 1140 40L224 326c-6 6-13 8-20 8z"/></svg>
