<svg xmlns="http://www.w3.org/2000/svg" version="1.0" viewBox="0 0 403.7 122" style="width:60%;filter:drop-shadow(2px 4px 6px black);max-width:300px">
        Wishes with â¤ by Rajaniraiyn
        <path fill="red" d="M43.8 1.2c-2 2-1.4 4.6 4.1 17.8l5.2 12.5h3.5c3.2 0 3.5-.3 3.7-3 .2-1.8-1.9-8-5-15.5C50.7 2.1 49.7.5 47.6.2c-1.4-.2-3 .3-3.8 1zM84.6 6.6c-1.7 3.6-3 6.8-3 7l-8.5 21a188.8 188.8 0 00-8.5 23c0 3.3 4.4 5.4 6.6 3.3.8-.9 4.3-8.5 7.8-17C88 22.2 89.3 19 90.6 19c.6 0 2.4 3 4 6.5C97 30.8 98 32 100 32c2.7 0 4.7-1.7 4.7-4 0-2.2-8-22-10.4-25.5A5 5 0 0090 0c-2 0-2.9 1-5.4 6.6zM131 1.2c-1 1.2-8.4 19-19.3 46.3-3.5 8.7-3.9 10.2-2.7 12 1.7 2.5 3.6 3 5.8 1.3 1-.7 6.1-11.9 11.3-24.8 13.7-33.3 13.1-31.8 12-33.8-1.5-2-5.8-2.7-7.2-1zM172.8 1.2c-.9 1-1.2 9-1.2 30V60l2.6 1.2c2.3 1.1 3 1 4.5-1 1.8-2.2 2-4.5 2-29.4 0-16.6-.5-27.7-1-28.9-1.3-2-5-2.5-6.9-.7zM302.6 2.4c-1 2.7-1.4 53.4-.4 56 1 2.6 4.1 4 6.4 2.6 2-1 2-2 2-29.8 0-21-.3-29-1.2-30-2-2-5.8-1.4-6.8 1.2zM352.8 1.3c-.6.7-1.3 6.4-1.4 12.8l-.3 11.4-11.6.3c-10 .2-11.9.5-13.4 2.2-1.5 1.7-1.6 2.5-.7 4.5 1.1 2.4 1.4 2.4 13.4 2.7l12.3.3.5 12.3c.4 9.4.8 12.5 2 13.2 2.2 1.4 3.5 1.2 5.3-.8 1.5-1.6 1.7-5.2 1.7-29.8 0-20.5-.3-28.3-1.2-29.2-1.6-1.6-5.3-1.5-6.6.1zM225.1 2.6c-9.6 5-12.9 13.7-8.5 22.4 3 6 10 9 23.8 10 11.1 1 13.6 1.6 16.6 4.6 3.6 3.5.7 10.1-5.2 12-3 .8-4.6 3.8-3.2 6.4 1.4 2.6 5 2.6 10 0 13.1-6.7 11.4-24.6-2.8-29.5a64 64 0 00-13.2-2c-10.2-.7-16.2-2.7-18-5.9-2-3.9-.5-7 5-10.5 5.3-3.2 6-4.9 3.4-7.5-2-2-4-2-7.9 0zM249.3 2.5c-2 2-2 2.1-.7 4.5.6 1.1 3.5 2.7 6.6 3.7 6.3 2 8.7 1.2 9.2-3 .3-2-.3-2.9-2.6-4-5-2.7-10.6-3.2-12.5-1.2zM216.6 50.8c-2 1.7-2.3 2.3-1.3 4.4.8 2 2.6 3 7.3 4.2 7 2 10.6 1.5 11.5-1.5 1-2.9-.9-4.6-7-6.4l-6.8-2c-.8-.4-2.4.3-3.7 1.3z">
        </path>
        <path d="M.1 83c-.3.5 0 2.8.4 5.2L2.8 102C4 111 5.3 114 8 114c2.6 0 3.7-1.8 5-8.3a22 22 0 011.8-6.7c.4 0 1 2.6 1.4 5.7.8 7 2 9.3 4.3 9.3 3.3 0 4.2-1.7 5.7-10.6 1-4.9 2-11.2 2.5-13.9.7-4 .6-5.2-.7-6.2-2.7-2-4-.3-5.4 7.3-.7 4.1-1.6 7.4-2 7.4-.3 0-1.2-3.4-1.9-7.5-1-5.9-1.7-7.6-3.2-8-3-1-3.9.6-5 8.4-.7 4-1.6 7.1-1.9 7.1-.4 0-1.3-3.3-2-7.3-.7-3.9-1.7-7.5-2.3-7.9-1.5-1-3.4-1-4 .1zM64 82.7c-1 .3-1.4 4.3-1.4 14.8 0 11.6.3 14.5 1.5 15.5 2.6 2.2 4-.3 3.6-7.2-.2-7.4 1.6-11.2 4.3-8.9 1.2 1 1.6 3.2 1.6 8.8 0 7.4 0 7.4 2.6 7.1 2.5-.3 2.7-.7 3.1-6.6.7-10.3-1.7-14.6-8.7-15.4-2-.3-2.6-.9-3-4.2-.5-3.9-1.4-4.9-3.7-3.9zM212.7 83.3c-.8 1-1 5.7-.9 15.3l.3 14h5v-15c0-13-.2-15-1.6-15.4-.9 0-2 .4-2.8 1.1zM292.8 83.2c-.7.7-1.2 2.7-1.2 4.5 0 3-.3 3.3-3 3.3-3.5 0-6.9 3.3-7 7-.5 6.4.3 12.6 1.6 14 1.1 1.1 8.3 1.7 13.7 1.1.4 0 .7-6.5.7-14.4 0-13.4-.6-16.7-3-16.7-.3 0-1 .5-1.8 1.2zM290.4 97c1 .5 1.2 2.5 1 6.2-.3 4.6-.6 5.4-2.3 5.4-1.7 0-2-.8-2.3-4.9-.5-7 .5-8.7 3.6-6.7zM398.3 82.7c-.9.8-.9 15 0 19.2.3 1.7 1.2 3.1 2 3.1 2.2 0 3.3-4.5 3.3-13.5 0-6.6-.3-8.4-1.6-8.9-2-.8-2.9-.8-3.7.1zM33.6 85c0 1.5.7 2 2.5 2s2.5-.5 2.5-2-.7-2-2.5-2-2.5.5-2.5 2zM33.6 102c0 6 .4 11.1 1 11.4.4.4 1.5.3 2.4 0 1.4-.5 1.6-2.2 1.4-11.3-.3-10-.4-10.6-2.5-10.9-2.3-.3-2.3-.2-2.3 10.7zM45.2 92.5c-3 2.3-2.5 7.3 1 10.2 1.6 1.2 3.4 2.3 4 2.3 1 0 2.4 2.1 2.4 3.6 0 1-2.9.2-4-1-2-2.5-5-2-5 .8 0 3 3.4 5.6 7.3 5.6 3 0 7.7-3.9 7.7-6.5 0-1.8-2.7-4.6-6.9-7-1.7-1-3-2.3-3-2.7 0-1.6 2.2-1.9 3.8-.4 2.6 2.4 5.1 2 5.1-.7 0-5-7.9-7.6-12.4-4.2zM99.1 94.7c.3 2.1 1.5 6.5 2.6 9.7 2.5 8 2.5 12.3 0 13.1-3 1-2.7 4.5.4 4.5 3.6 0 6.1-3 8-9.6l3.5-12c2.5-7.8 2.5-9.4.2-9.4-2.4 0-4.2 2-4.2 4.4 0 2.6-2.5 7.2-3.2 6-.3-.5-1-3-1.8-5.7-1-4-1.6-4.7-3.7-4.7-2.4 0-2.5.2-1.8 3.7zM121.2 93c-3.9 4.1-3.3 16.8 1 19 3.2 1.8 8.2 1.5 10.5-.6 1.5-1.4 2-3 2-8.8 0-3.9-.5-7.6-.9-8.2-2.3-3.6-9.9-4.5-12.6-1.5zm8.2 8.6c.2 3.7 0 5.4-1.3 6.4-1.3 1.1-1.8 1-3-.6-1.8-2.3-1.9-8.6-.3-10.2 2.6-2.6 4.3-.9 4.6 4.4zM139.3 91.7c-.4.3-.7 4.4-.7 9 0 7.5.3 8.6 2.4 10.8 2 2 3.2 2.3 7.5 2.1 2.8 0 5.3-.5 5.6-.8.3-.3.8-4.6 1.1-9.5.5-9.6-.7-13.2-4-12-1.3.5-1.6 2.1-1.6 8.7s-.3 8.2-1.6 8.7c-2.5 1-4.5-2.6-4.3-7.2.4-8.4 0-10.5-1.9-10.5-1 0-2.2.3-2.5.7zM159.6 102c0 8.1.3 11 1.3 11.3 2.7 1 4.1-1 3.8-5.7-.4-7 .7-10.5 3.5-11.2 2.5-.6 5-3.9 3.6-4.8-.4-.2-3.3-.4-6.5-.4l-5.7.1V102zM193.7 93.6c-1.6 2.1-2 4.1-2 9 0 5.2.3 6.4 2.4 8.4 4.8 4.5 13.5 2.1 13.5-3.7 0-3-3.5-3-5.9 0-2.6 3.1-4 1.3-4-4.9 0-6.3 1.5-7.8 5-4.4 4 4 6.5.3 3-4.3-3-3.8-9-3.8-12 0zM223.7 93.6c-1.6 2-2 4.1-2 8.5 0 7.5 2.6 11.1 8.2 11.1 6.1 0 7.7-2.2 7.7-10.8 0-6.6-.2-7.4-2.6-9.3-3.8-3-8.7-2.8-11.3.5zm8.3 4c1 2.6.7 9-.5 10.1-2.3 2.3-3.9.2-3.9-5 0-3 .3-5.7.7-6 1.1-1.2 3.1-.7 3.7 1zM243.6 93c-3.6 3.6-2.5 7 3.6 11.1 2.4 1.6 4.4 3.4 4.4 4 0 1.4-3 1.1-4.7-.6-.8-.9-2.3-1.5-3.2-1.3-4.5 1 0 7.8 5 7.8 9.4 0 11.3-8.3 3-12.7-3.8-2-5.4-5.3-2.6-5.3.8 0 1.8.7 2.1 1.5.4.8 1.7 1.5 3 1.5 2.8 0 3.2-2.4.8-5.8-2-2.9-8.5-3-11.4-.2zM263.8 92.6c-2 1.3-2.2 2.4-2.2 9.3 0 6.6.3 8.1 2 9.6a8.5 8.5 0 0011.7-.9c1.3-1.6 2.2-3.3 2-4-.7-2-4-1.8-5.7.5-2.2 2.8-5.3 2-4.8-1.3.3-2 1-2.3 5.1-2.6 5.2-.3 6.3-1.5 5.3-5.7a8.7 8.7 0 00-13.4-4.9zm7.1 5c.1.4-.6 1-1.5 1.2-1 .2-1.8-.3-1.8-1.3 0-1.7 3-1.8 3.3 0zM319.8 93.3c-1.8 2-2.2 3.5-2.2 9.4 0 8.4 1.5 10.4 8.1 10.5 6.1.1 8-2.4 8-10.9 0-5.5-.5-6.7-2.6-8.8a7.8 7.8 0 00-11.3-.2zm7.3 4c1.4 4.5 1.4 8.5 0 10.2-1.5 2-1.5 2-3 .1-1.5-2-2-7.2-.9-10 .7-1.9 3.3-2 4-.4zM337.6 102c0 8.7.3 11 1.5 11.4 3.6 1.3 4.5-.3 4.5-8.5 0-6.4.3-8 1.6-8.6 2.5-.9 3.4 1.6 3.4 9.3 0 7.1.8 8.7 3.8 7.7.8-.3 1.2-3.2 1.2-9.7 0-11.6-.8-12.5-9.8-12.4l-6.2.1V102zM359.7 93.6c-2.8 3.6-2.9 13.8-.2 17.3 3.8 5 14.1 2.3 14.1-3.6 0-2.9-2.6-3-5.6-.2-2.6 2.5-4.4 1.8-4.4-1.7 0-2.2.4-2.4 5-2.4h5v-3.8c0-5-3.2-8.2-8.2-8.2-2.8 0-4.2.7-5.7 2.6zm8 4c0 .7-.7 1.4-1.5 1.4-1.7 0-2.8-1.4-1.9-2.4 1.2-1.2 3.3-.6 3.3 1zM379.8 92.6a5.2 5.2 0 00-2.2 4.5c0 2.3 1 3.6 5 6.5 2.8 2 5 4 5 4.5 0 1.4-3 1-4.7-.6-.8-.9-2.3-1.5-3.2-1.3-4.5 1 0 7.8 5 7.8 9.4 0 11.3-8.3 3-12.7-3.8-2-5.4-5.3-2.6-5.3.8 0 1.8.7 2.1 1.5.4.8 1.7 1.5 3 1.5 2.8 0 3.2-2.4.8-5.8-1.8-2.7-7.8-3-11.2-.6zM398.3 109.7c-2 2 .8 4.8 3.8 3.7 2.5-1 1.8-4.4-.8-4.4-1.3 0-2.7.3-3 .7z">
        </path>
</svg>
